<?xml version="1.0" encoding="UTF-8" standalone="no"?>
<!DOCTYPE svg PUBLIC "-//W3C//DTD SVG 1.0//EN" "http://www.w3.org/TR/2001/REC-SVG-20010904/DTD/svg10.dtd">
<!-- Generated by Microsoft Visio 11.0, SVG Export, v1.0 Enterprise-Architecture.svg Page-1 -->
<svg xmlns="http://www.w3.org/2000/svg" xmlns:v="http://schemas.microsoft.com/visio/2003/SVGExtensions/" xmlns:xlink="http://www.w3.org/1999/xlink" width="8.1017in"
		height="6.30831in" viewBox="0 0 583.322 454.198" xml:space="preserve" color-interpolation-filters="sRGB" class="st19">
	<title>Infrastructure Reference Architecture</title>
	<v:documentProperties v:langID="1033" v:metric="true" v:viewMarkup="false">
		<v:userDefs>
			<v:ud v:nameU="msvNoAutoConnect" v:val="VT0(1):26"/>
			<v:ud v:nameU="msvNoApplyDataGraphicAfterLink" v:val="VT0(1):5"/>
		</v:userDefs>
	</v:documentProperties>

	<style type="text/css">
	<![CDATA[
		.st1 {fill:#cadaa9;stroke:#000000;stroke-linecap:round;stroke-linejoin:round;stroke-width:0.24}
		.st2 {fill:#000000;font-family:Arial;font-size:0.75em;font-weight:bold}
		.st3 {fill:none;stroke:#000000;stroke-dasharray:10.8,6.48;stroke-linecap:round;stroke-linejoin:round;stroke-width:0.72}
		.st4 {fill:#000000;font-family:Arial;font-size:1.00001em;font-weight:bold}
		.st5 {fill:#d2c9de;stroke:#000000;stroke-linecap:round;stroke-linejoin:round;stroke-width:0.24}
		.st6 {fill:#ffffff;stroke:none;stroke-linecap:butt;stroke-width:0.75}
		.st7 {fill:#808080;stroke:none;stroke-linecap:butt;stroke-width:0.75}
		.st8 {fill:#000000;font-family:Arial;font-size:1.00001em}
		.st9 {font-size:1em}
		.st10 {fill:#c0c0c0;stroke:#000000;stroke-linecap:round;stroke-linejoin:round;stroke-width:0.24}
		.st11 {fill:#ffffff;stroke:#000000;stroke-linecap:round;stroke-linejoin:round;stroke-width:0.24}
		.st12 {fill:#000000;font-family:Arial;font-size:0.583328em;font-weight:bold}
		.st13 {stroke:#000000;stroke-linecap:round;stroke-linejoin:round;stroke-width:0.72}
		.st14 {fill:#000000;stroke:#000000;stroke-linecap:round;stroke-linejoin:round;stroke-width:0.24}
		.st15 {fill:#ffffff;stroke:#000000;stroke-dasharray:0.72,1.44;stroke-linecap:round;stroke-linejoin:round;stroke-width:0.72}
		.st16 {fill:#98d0de;stroke:#000000;stroke-linecap:round;stroke-linejoin:round;stroke-width:0.24}
		.st17 {fill:#000000;font-family:Arial;font-size:0.666664em;font-weight:bold}
		.st18 {fill:#fffd99;stroke:#000000;stroke-linecap:round;stroke-linejoin:round;stroke-width:0.24}
		.st19 {fill:none;fill-rule:evenodd;font-size:12;overflow:visible;stroke-linecap:square;stroke-miterlimit:3}
	]]>
	</style>

	<g v:mID="0" v:index="1" v:groupContext="foregroundPage">
		<v:userDefs>
			<v:ud v:nameU="UMLDiagramType" v:val="VT0(0):26"/>
		</v:userDefs>
		<title>Page-1</title>
		<v:pageProperties v:drawingScale="0.0393701" v:pageScale="0.0393701" v:drawingUnits="24" v:shadowOffsetX="8.50394"
				v:shadowOffsetY="-8.50394"/>
		<v:layer v:name="5-ClientDetails" v:index="0"/>
		<g id="group1-1" transform="translate(16.3632,-270.011)" v:mID="1" v:groupContext="group">
			<v:userDefs>
				<v:ud v:nameU="UMLShapeType" v:val="VT0(26):26"/>
				<v:ud v:nameU="UMLObjectGUID" v:val="VT4()"/>
				<v:ud v:nameU="UMLError" v:val="VT0(0):26"/>
				<v:ud v:nameU="UMLPresOption1" v:val="VT0(3):26"/>
				<v:ud v:nameU="UMLVersion" v:val="VT0(2):26"/>
				<v:ud v:nameU="visDescription" v:val="VT4(Represents a run-time computational or physical resource.)"/>
				<v:ud v:nameU="visVersion" v:val="VT0(12):26"/>
			</v:userDefs>
			<title>Node</title>
			<g id="shape2-2" v:mID="2" v:groupContext="shape" transform="translate(254.398,0)">
				<title>Sheet.2</title>
				<path d="M0 454.2 L9 445.2 L9 416.85 L0 425.85 L0 454.2 Z" class="st1"/>
			</g>
			<g id="shape3-4" v:mID="3" v:groupContext="shape" transform="translate(0,-28.3465)">
				<title>Sheet.3</title>
				<path d="M0 454.2 L254.4 454.2 L263.4 445.2 L9 445.2 L0 454.2 Z" class="st1"/>
			</g>
			<g id="shape4-6" v:mID="4" v:groupContext="shape">
				<title>Name</title>
				<desc>Portal</desc>
				<v:textBlock v:margins="rect(4,4,4,4)" v:tabSpace="42.5197" v:verticalAlign="0"/>
				<v:textRect cx="127.199" cy="440.025" width="254.4" height="28.3465"/>
				<rect x="0" y="425.852" width="254.398" height="28.3465" class="st1"/>
				<text x="4" y="437.95" class="st2" v:langID="1031"><v:paragraph/><v:tabList/>Portal</text>			</g>
		</g>
		<g id="shape5-9" v:mID="5" v:groupContext="shape" transform="translate(1.47,-255.838)">
			<title>Sheet.5</title>
			<desc>Information-Tier</desc>
			<v:textBlock v:margins="rect(4,4,4,4)" v:tabSpace="42.5197" v:verticalAlign="0"/>
			<v:textRect cx="283.465" cy="418.405" width="566.93" height="71.5861"/>
			<path d="M0 454.2 L566.93 454.2 L566.93 382.61 L0 382.61 L0 454.2 Z" class="st3"/>
			<text x="4" y="397.41" class="st4" v:langID="1031"><v:paragraph/><v:tabList/>Information-Tier</text>		</g>
		<g id="group6-12" transform="translate(290.604,-270.011)" v:mID="6" v:groupContext="group">
			<v:userDefs>
				<v:ud v:nameU="UMLShapeType" v:val="VT0(26):26"/>
				<v:ud v:nameU="UMLObjectGUID" v:val="VT4()"/>
				<v:ud v:nameU="UMLError" v:val="VT0(0):26"/>
				<v:ud v:nameU="UMLPresOption1" v:val="VT0(3):26"/>
				<v:ud v:nameU="UMLVersion" v:val="VT0(2):26"/>
				<v:ud v:nameU="visDescription" v:val="VT4(Represents a run-time computational or physical resource.)"/>
				<v:ud v:nameU="visVersion" v:val="VT0(12):26"/>
			</v:userDefs>
			<title>Node.6</title>
			<g id="shape7-13" v:mID="7" v:groupContext="shape" transform="translate(255.118,0)">
				<title>Sheet.7</title>
				<path d="M0 454.2 L9 445.2 L9 416.85 L0 425.85 L0 454.2 Z" class="st5"/>
			</g>
			<g id="shape8-15" v:mID="8" v:groupContext="shape" transform="translate(0,-28.3465)">
				<title>Sheet.8</title>
				<path d="M0 454.2 L255.12 454.2 L264.12 445.2 L9 445.2 L0 454.2 Z" class="st5"/>
			</g>
			<g id="shape9-17" v:mID="9" v:groupContext="shape">
				<title>Name</title>
				<desc>Service-Gateway</desc>
				<v:textBlock v:margins="rect(4,4,4,4)" v:tabSpace="42.5197" v:verticalAlign="0"/>
				<v:textRect cx="127.559" cy="440.025" width="255.12" height="28.3465"/>
				<rect x="0" y="425.852" width="255.118" height="28.3465" class="st5"/>
				<text x="4" y="437.95" class="st2" v:langID="1031"><v:paragraph/><v:tabList/>Service-Gateway</text>			</g>
		</g>
		<g id="shape72-20" v:mID="72" v:groupContext="shape" transform="translate(1.47,-0.72)">
			<title>Sheet.72</title>
			<desc>Logic-Tier</desc>
			<v:textBlock v:margins="rect(4,4,4,4)" v:tabSpace="42.5197" v:verticalAlign="0"/>
			<v:textRect cx="283.465" cy="340.813" width="566.93" height="226.772"/>
			<path d="M0 454.2 L566.93 454.2 L566.93 227.43 L0 227.43 L0 454.2 Z" class="st3"/>
			<text x="4" y="242.23" class="st4" v:langID="1031"><v:paragraph/><v:tabList/>Logic-Tier</text>		</g>
		<g id="group204-23" transform="translate(0.75,-332.019)" v:mID="204" v:groupContext="group">
			<title>Cloud, Public</title>
			<desc>Internet / Intranet</desc>
			<g id="shape205-24" v:mID="205" v:groupContext="shape">
				<title>Sheet.205</title>
				<path d="M104.53 454.2 C46.9 454.2 0 437.46 0 416.89 C0 396.55 45.81 379.96 102.52 379.58 C120.56 371.9 146.92 367.43
							 175.43 367.38 C185.75 347.71 234.09 332.77 291.99 332.77 C330.25 332.77 365.85 339.55 387.72 350.54
							 C399.06 349.22 410.96 348.54 422.96 348.54 C486.38 348.54 537.98 366.99 537.98 389.67 C537.98 390.07
							 537.97 390.48 537.93 390.88 C565.03 397.17 581.82 407.93 581.82 419.67 C581.82 435.49 551.71 449.27
							 508.61 453.19 L507.85 453.26 L493.8 454.2 L104.53 454.2 Z" class="st6"/>
			</g>
			<g id="shape207-26" v:mID="207" v:groupContext="shape" transform="translate(22.9736,-7.76468)">
				<title>Sheet.207</title>
				<path d="M468.58 454.2 L81.56 454.2 C36.58 454.2 -0 440.95 0 424.66 C-0 408.36 36.58 395.1 81.56 395.1 C84.67 395.1
							 87.81 395.17 91.14 395.33 C104.54 387.62 127.75 382.91 152.92 382.91 C159.84 382.91 166.71 383.28 173.47
							 384.03 C173.43 383.68 173.4 383.34 173.4 382.99 C173.4 363.86 216.3 348.3 269.01 348.3 C306.05 348.3
							 339.49 356.24 354.96 368.39 C368.71 365.55 384.1 364.07 399.99 364.07 C450.74 364.07 492.03 379.04 492.03
							 397.43 C492.03 399.23 491.6 401.04 490.72 402.9 C517.99 407.07 535.88 416.65 535.88 427.43 C535.88 439.88
							 512.35 450.48 479.67 453.46 L468.58 454.2 Z" class="st6"/>
			</g>
			<g id="shape208-28" v:mID="208" v:groupContext="shape" transform="translate(15.3157,-5.17645)">
				<title>Sheet.208</title>
				<path d="M476.98 454.2 L89.21 454.2 C40.02 454.2 0 439.78 0 422.07 C-0 403.67 43.07 388.7 94.84 389.99 C110.03 382.28
							 134.26 377.73 160.58 377.73 C164.93 377.73 169.28 377.86 173.6 378.13 C176.86 358.63 221.85 343.12 276.67
							 343.12 C313.75 343.12 348.01 350.52 366.04 362.21 C379.04 360.03 393.27 358.89 407.64 358.89 C462.62
							 358.89 507.35 375.02 507.35 394.84 C507.35 396.17 507.14 397.48 506.7 398.82 C533.91 403.8 551.2 413.8
							 551.2 424.84 C551.2 438.32 525.76 450.05 489.32 453.36 L476.98 454.2 Z M89.21 395.1 C48.47 395.1 15.32
							 407.2 15.32 422.07 C15.32 436.93 48.47 449.02 89.21 449.02 L475.48 449.02 L485.84 448.33 C515.09 445.66
							 535.88 435.98 535.88 424.84 C535.88 415.15 519.92 406.45 495.21 402.67 L489.88 401.86 L490.81 399.91
							 C491.63 398.17 492.03 396.52 492.03 394.84 C492.03 377.87 454.17 364.07 407.64 364.07 C393.29 364.07
							 379.1 365.43 366.6 368.01 L359.07 369.57 L355.58 366.83 C341.25 355.57 310.27 348.3 276.67 348.3 C228.17
							 348.3 188.72 362.7 188.72 380.4 C188.72 380.71 188.74 381.02 188.78 381.32 L189.27 385.06 L178.76 383.9
							 C172.78 383.24 166.67 382.9 160.58 382.9 C138.16 382.9 117.53 387.07 105.4 394.05 L102.81 395.54 L97.75
							 395.3 C94.79 395.17 91.99 395.1 89.21 395.1 Z" class="st7"/>
			</g>
			<g id="shape204-30" v:mID="204" v:groupContext="groupContent">
				<v:textBlock v:margins="rect(0,0,0,0)" v:tabSpace="42.5197"/>
				<v:textRect cx="290.911" cy="393.484" width="581.83" height="121.429"/>
				<text x="267.23" y="368.28" class="st8" v:langID="1031"><v:paragraph v:horizAlign="1"/><v:tabList/>Internet / <v:newlineChar/><tspan
							x="270.56" dy="1.2em" class="st9">Intranet</tspan><v:newlineChar/><v:newlineChar/><v:newlineChar/></text>			</g>
		</g>
		<g id="group86-33" transform="translate(80.9818,-347.893)" v:mID="86" v:groupContext="group">
			<v:userDefs>
				<v:ud v:nameU="UMLShapeType" v:val="VT0(26):26"/>
				<v:ud v:nameU="UMLObjectGUID" v:val="VT4()"/>
				<v:ud v:nameU="UMLError" v:val="VT0(0):26"/>
				<v:ud v:nameU="UMLPresOption1" v:val="VT0(3):26"/>
				<v:ud v:nameU="UMLVersion" v:val="VT0(2):26"/>
				<v:ud v:nameU="visDescription" v:val="VT4(Represents a run-time computational or physical resource.)"/>
				<v:ud v:nameU="visVersion" v:val="VT0(12):26"/>
			</v:userDefs>
			<title>Node.86</title>
			<g id="shape87-34" v:mID="87" v:groupContext="shape" transform="translate(123.307,0)">
				<title>Sheet.87</title>
				<path d="M0 454.2 L9 445.2 L9 417.42 L0 426.42 L0 454.2 Z" class="st10"/>
			</g>
			<g id="shape88-36" v:mID="88" v:groupContext="shape" transform="translate(0,-27.7795)">
				<title>Sheet.88</title>
				<path d="M0 454.2 L123.31 454.2 L132.31 445.2 L9 445.2 L0 454.2 Z" class="st10"/>
			</g>
			<g id="shape89-38" v:mID="89" v:groupContext="shape">
				<title>Name</title>
				<desc>&#60;&#60;End-User Device&#62;&#62; (Browser, Smartphone)</desc>
				<v:textBlock v:margins="rect(4,4,4,4)" v:tabSpace="42.5197" v:verticalAlign="0"/>
				<v:textRect cx="61.6535" cy="440.309" width="123.31" height="27.7795"/>
				<rect x="0" y="426.419" width="123.307" height="27.7795" class="st11"/>
				<text x="4" y="436.72" class="st12" v:langID="1031"><v:paragraph/><v:tabList/>&#60;&#60;End-User Device&#62;&#62;<v:newlineChar/><tspan
							x="4" dy="1.2em" class="st9"> </tspan>(Browser, Smartphone)</text>			</g>
		</g>
		<g id="group10-42" transform="translate(325.742,-347.893)" v:mID="10" v:groupContext="group">
			<v:userDefs>
				<v:ud v:nameU="UMLShapeType" v:val="VT0(26):26"/>
				<v:ud v:nameU="UMLObjectGUID" v:val="VT4()"/>
				<v:ud v:nameU="UMLError" v:val="VT0(0):26"/>
				<v:ud v:nameU="UMLPresOption1" v:val="VT0(3):26"/>
				<v:ud v:nameU="UMLVersion" v:val="VT0(2):26"/>
				<v:ud v:nameU="visDescription" v:val="VT4(Represents a run-time computational or physical resource.)"/>
				<v:ud v:nameU="visVersion" v:val="VT0(12):26"/>
			</v:userDefs>
			<title>Node.10</title>
			<g id="shape11-43" v:mID="11" v:groupContext="shape" transform="translate(85.0394,0)">
				<title>Sheet.11</title>
				<path d="M0 454.2 L9 445.2 L9 417.42 L0 426.42 L0 454.2 Z" class="st10"/>
			</g>
			<g id="shape12-45" v:mID="12" v:groupContext="shape" transform="translate(0,-27.7795)">
				<title>Sheet.12</title>
				<path d="M0 454.2 L85.04 454.2 L94.04 445.2 L9 445.2 L0 454.2 Z" class="st10"/>
			</g>
			<g id="shape13-47" v:mID="13" v:groupContext="shape">
				<title>Name</title>
				<desc>Service Consumer (External System)</desc>
				<v:textBlock v:margins="rect(4,4,4,4)" v:tabSpace="42.5197" v:verticalAlign="0"/>
				<v:textRect cx="42.5197" cy="440.309" width="85.04" height="27.7795"/>
				<rect x="0" y="426.419" width="85.0394" height="27.7795" class="st11"/>
				<text x="4" y="436.72" class="st12" v:langID="1031"><v:paragraph/><v:tabList/>Service Consumer<v:newlineChar/><tspan
							x="4" dy="1.2em" class="st9">(</tspan>External System)</text>			</g>
		</g>
		<g id="group14-51" transform="translate(422.12,-347.893)" v:mID="14" v:groupContext="group">
			<v:userDefs>
				<v:ud v:nameU="UMLShapeType" v:val="VT0(26):26"/>
				<v:ud v:nameU="UMLObjectGUID" v:val="VT4()"/>
				<v:ud v:nameU="UMLError" v:val="VT0(0):26"/>
				<v:ud v:nameU="UMLPresOption1" v:val="VT0(3):26"/>
				<v:ud v:nameU="UMLVersion" v:val="VT0(2):26"/>
				<v:ud v:nameU="visDescription" v:val="VT4(Represents a run-time computational or physical resource.)"/>
				<v:ud v:nameU="visVersion" v:val="VT0(12):26"/>
			</v:userDefs>
			<title>Node.14</title>
			<g id="shape17-52" v:mID="17" v:groupContext="shape" transform="translate(85.0394,0)">
				<title>Sheet.17</title>
				<path d="M0 454.2 L9 445.2 L9 417.42 L0 426.42 L0 454.2 Z" class="st10"/>
			</g>
			<g id="shape18-54" v:mID="18" v:groupContext="shape" transform="translate(0,-27.7795)">
				<title>Sheet.18</title>
				<path d="M0 454.2 L85.04 454.2 L94.04 445.2 L9 445.2 L0 454.2 Z" class="st10"/>
			</g>
			<g id="shape19-56" v:mID="19" v:groupContext="shape">
				<title>Name</title>
				<desc>Service Provider (External System)</desc>
				<v:textBlock v:margins="rect(4,4,4,4)" v:tabSpace="42.5197" v:verticalAlign="0"/>
				<v:textRect cx="42.5197" cy="440.309" width="85.04" height="27.7795"/>
				<rect x="0" y="426.419" width="85.0394" height="27.7795" class="st11"/>
				<text x="4" y="436.72" class="st12" v:langID="1031"><v:paragraph/><v:tabList/>Service Provider<v:newlineChar/><tspan
							x="4" dy="1.2em" class="st9">(</tspan>External System)</text>			</g>
		</g>
		<g id="group21-60" transform="translate(364.671,-302.539)" v:mID="21" v:groupContext="group">
			<title>Sheet.21</title>
			<g id="shape22-61" v:mID="22" v:groupContext="shape" transform="translate(458.071,408.111) rotate(89.8718)">
				<title>Sheet.22</title>
				<path d="M0 454.2 L42.24 454.2" class="st13"/>
			</g>
			<g id="shape23-64" v:mID="23" v:groupContext="shape" transform="translate(7.93701,900.46) rotate(180)">
				<title>Triangle</title>
				<v:userDefs>
					<v:ud v:nameU="visVersion" v:val="VT0(12):26"/>
				</v:userDefs>
				<path d="M8.55 454.2 L3.97 446.26 L-0.61 454.2 L8.55 454.2 Z" class="st14"/>
			</g>
		</g>
		<g id="group15-66" transform="translate(138.667,-302.539)" v:mID="15" v:groupContext="group">
			<title>Sheet.15</title>
			<g id="shape16-67" v:mID="16" v:groupContext="shape" transform="translate(458.071,408.111) rotate(89.8718)">
				<title>Sheet.16</title>
				<path d="M0 454.2 L42.24 454.2" class="st13"/>
			</g>
			<g id="shape20-70" v:mID="20" v:groupContext="shape" transform="translate(7.93701,900.46) rotate(180)">
				<title>Triangle</title>
				<v:userDefs>
					<v:ud v:nameU="visVersion" v:val="VT0(12):26"/>
				</v:userDefs>
				<path d="M8.55 454.2 L3.97 446.26 L-0.61 454.2 L8.55 454.2 Z" class="st14"/>
			</g>
		</g>
		<g id="group24-72" transform="translate(468.608,560.787) rotate(180)" v:mID="24" v:groupContext="group">
			<title>Sheet.24</title>
			<g id="shape25-73" v:mID="25" v:groupContext="shape" transform="translate(458.071,408.111) rotate(89.8718)">
				<title>Sheet.25</title>
				<path d="M0 454.2 L42.24 454.2" class="st13"/>
			</g>
			<g id="shape26-76" v:mID="26" v:groupContext="shape" transform="translate(7.93701,900.46) rotate(180)">
				<title>Triangle</title>
				<v:userDefs>
					<v:ud v:nameU="visVersion" v:val="VT0(12):26"/>
				</v:userDefs>
				<path d="M8.55 454.2 L3.97 446.26 L-0.61 454.2 L8.55 454.2 Z" class="st14"/>
			</g>
		</g>
		<g id="shape27-78" v:mID="27" v:groupContext="shape" transform="translate(15.6432,-14.8932)">
			<title>Sheet.27</title>
			<desc>Domain A</desc>
			<v:textBlock v:margins="rect(4,4,4,4)" v:tabSpace="42.5197" v:verticalAlign="0"/>
			<v:textRect cx="70.8661" cy="359.238" width="141.74" height="189.921"/>
			<path d="M0 454.2 L141.73 454.2 L141.73 264.28 L0 264.28 L0 454.2 Z" class="st15"/>
			<text x="4" y="276.38" class="st2" v:langID="1031"><v:paragraph/><v:tabList/>Domain A</text>		</g>
		<g id="group68-81" transform="translate(23.4272,-156.271)" v:mID="68" v:groupContext="group">
			<v:userDefs>
				<v:ud v:nameU="UMLShapeType" v:val="VT0(26):26"/>
				<v:ud v:nameU="UMLObjectGUID" v:val="VT4()"/>
				<v:ud v:nameU="UMLError" v:val="VT0(0):26"/>
				<v:ud v:nameU="UMLPresOption1" v:val="VT0(3):26"/>
				<v:ud v:nameU="UMLVersion" v:val="VT0(2):26"/>
				<v:ud v:nameU="visDescription" v:val="VT4(Represents a run-time computational or physical resource.)"/>
				<v:ud v:nameU="visVersion" v:val="VT0(12):26"/>
			</v:userDefs>
			<title>Node.68</title>
			<g id="shape69-82" v:mID="69" v:groupContext="shape" transform="translate(116.22,0)">
				<title>Sheet.69</title>
				<path d="M0 454.2 L9 445.2 L9 428.19 L0 437.19 L0 454.2 Z" class="st16"/>
			</g>
			<g id="shape70-84" v:mID="70" v:groupContext="shape" transform="translate(0,-17.0079)">
				<title>Sheet.70</title>
				<path d="M0 454.2 L116.22 454.2 L125.22 445.2 L9 445.2 L0 454.2 Z" class="st16"/>
			</g>
			<g id="shape71-86" v:mID="71" v:groupContext="shape">
				<title>Name</title>
				<desc>Application A-1</desc>
				<v:textBlock v:margins="rect(4,4,4,4)" v:tabSpace="42.5197" v:verticalAlign="0"/>
				<v:textRect cx="58.1102" cy="445.694" width="116.23" height="17.0079"/>
				<rect x="0" y="437.191" width="116.22" height="17.0079" class="st16"/>
				<text x="4" y="448.39" class="st17" v:langID="1031"><v:paragraph/><v:tabList/>Application A-1</text>			</g>
		</g>
		<g id="group28-89" transform="translate(23.4272,-122.255)" v:mID="28" v:groupContext="group">
			<v:userDefs>
				<v:ud v:nameU="UMLShapeType" v:val="VT0(26):26"/>
				<v:ud v:nameU="UMLObjectGUID" v:val="VT4()"/>
				<v:ud v:nameU="UMLError" v:val="VT0(0):26"/>
				<v:ud v:nameU="UMLPresOption1" v:val="VT0(3):26"/>
				<v:ud v:nameU="UMLVersion" v:val="VT0(2):26"/>
				<v:ud v:nameU="visDescription" v:val="VT4(Represents a run-time computational or physical resource.)"/>
				<v:ud v:nameU="visVersion" v:val="VT0(12):26"/>
			</v:userDefs>
			<title>Node.28</title>
			<g id="shape29-90" v:mID="29" v:groupContext="shape" transform="translate(116.22,0)">
				<title>Sheet.29</title>
				<path d="M0 454.2 L9 445.2 L9 428.19 L0 437.19 L0 454.2 Z" class="st16"/>
			</g>
			<g id="shape30-92" v:mID="30" v:groupContext="shape" transform="translate(0,-17.0079)">
				<title>Sheet.30</title>
				<path d="M0 454.2 L116.22 454.2 L125.22 445.2 L9 445.2 L0 454.2 Z" class="st16"/>
			</g>
			<g id="shape31-94" v:mID="31" v:groupContext="shape">
				<title>Name</title>
				<desc>Application A-...</desc>
				<v:textBlock v:margins="rect(4,4,4,4)" v:tabSpace="42.5197" v:verticalAlign="0"/>
				<v:textRect cx="58.1102" cy="445.694" width="116.23" height="17.0079"/>
				<rect x="0" y="437.191" width="116.22" height="17.0079" class="st16"/>
				<text x="4" y="448.39" class="st17" v:langID="1031"><v:paragraph/><v:tabList/>Application A-...</text>			</g>
		</g>
		<g id="group32-97" transform="translate(23.4272,-88.2397)" v:mID="32" v:groupContext="group">
			<v:userDefs>
				<v:ud v:nameU="UMLShapeType" v:val="VT0(26):26"/>
				<v:ud v:nameU="UMLObjectGUID" v:val="VT4()"/>
				<v:ud v:nameU="UMLError" v:val="VT0(0):26"/>
				<v:ud v:nameU="UMLPresOption1" v:val="VT0(3):26"/>
				<v:ud v:nameU="UMLVersion" v:val="VT0(2):26"/>
				<v:ud v:nameU="visDescription" v:val="VT4(Represents a run-time computational or physical resource.)"/>
				<v:ud v:nameU="visVersion" v:val="VT0(12):26"/>
			</v:userDefs>
			<title>Node.32</title>
			<g id="shape33-98" v:mID="33" v:groupContext="shape" transform="translate(116.22,0)">
				<title>Sheet.33</title>
				<path d="M0 454.2 L9 445.2 L9 428.19 L0 437.19 L0 454.2 Z" class="st16"/>
			</g>
			<g id="shape34-100" v:mID="34" v:groupContext="shape" transform="translate(0,-17.0079)">
				<title>Sheet.34</title>
				<path d="M0 454.2 L116.22 454.2 L125.22 445.2 L9 445.2 L0 454.2 Z" class="st16"/>
			</g>
			<g id="shape35-102" v:mID="35" v:groupContext="shape">
				<title>Name</title>
				<desc>Application A-...</desc>
				<v:textBlock v:margins="rect(4,4,4,4)" v:tabSpace="42.5197" v:verticalAlign="0"/>
				<v:textRect cx="58.1102" cy="445.694" width="116.23" height="17.0079"/>
				<rect x="0" y="437.191" width="116.22" height="17.0079" class="st16"/>
				<text x="4" y="448.39" class="st17" v:langID="1031"><v:paragraph/><v:tabList/>Application A-...</text>			</g>
		</g>
		<g id="shape36-105" v:mID="36" v:groupContext="shape" transform="translate(171.549,-14.8932)">
			<title>Sheet.36</title>
			<desc>Domain ...</desc>
			<v:textBlock v:margins="rect(4,4,4,4)" v:tabSpace="42.5197" v:verticalAlign="0"/>
			<v:textRect cx="35.4331" cy="359.238" width="70.87" height="189.921"/>
			<path d="M0 454.2 L70.87 454.2 L70.87 264.28 L0 264.28 L0 454.2 Z" class="st15"/>
			<text x="4" y="276.38" class="st2" v:langID="1031"><v:paragraph/><v:tabList/>Domain ...</text>		</g>
		<g id="shape49-108" v:mID="49" v:groupContext="shape" transform="translate(256.588,-14.8932)">
			<title>Sheet.49</title>
			<desc>Domain X</desc>
			<v:textBlock v:margins="rect(4,4,4,4)" v:tabSpace="42.5197" v:verticalAlign="0"/>
			<v:textRect cx="70.8661" cy="359.238" width="141.74" height="189.921"/>
			<path d="M0 454.2 L141.73 454.2 L141.73 264.28 L0 264.28 L0 454.2 Z" class="st15"/>
			<text x="4" y="276.38" class="st2" v:langID="1031"><v:paragraph/><v:tabList/>Domain X</text>		</g>
		<g id="group50-111" transform="translate(264.372,-156.271)" v:mID="50" v:groupContext="group">
			<v:userDefs>
				<v:ud v:nameU="UMLShapeType" v:val="VT0(26):26"/>
				<v:ud v:nameU="UMLObjectGUID" v:val="VT4()"/>
				<v:ud v:nameU="UMLError" v:val="VT0(0):26"/>
				<v:ud v:nameU="UMLPresOption1" v:val="VT0(3):26"/>
				<v:ud v:nameU="UMLVersion" v:val="VT0(2):26"/>
				<v:ud v:nameU="visDescription" v:val="VT4(Represents a run-time computational or physical resource.)"/>
				<v:ud v:nameU="visVersion" v:val="VT0(12):26"/>
			</v:userDefs>
			<title>Node.50</title>
			<g id="shape51-112" v:mID="51" v:groupContext="shape" transform="translate(116.22,0)">
				<title>Sheet.51</title>
				<path d="M0 454.2 L9 445.2 L9 428.19 L0 437.19 L0 454.2 Z" class="st16"/>
			</g>
			<g id="shape52-114" v:mID="52" v:groupContext="shape" transform="translate(0,-17.0079)">
				<title>Sheet.52</title>
				<path d="M0 454.2 L116.22 454.2 L125.22 445.2 L9 445.2 L0 454.2 Z" class="st16"/>
			</g>
			<g id="shape53-116" v:mID="53" v:groupContext="shape">
				<title>Name</title>
				<desc>Application X-1</desc>
				<v:textBlock v:margins="rect(4,4,4,4)" v:tabSpace="42.5197" v:verticalAlign="0"/>
				<v:textRect cx="58.1102" cy="445.694" width="116.23" height="17.0079"/>
				<rect x="0" y="437.191" width="116.22" height="17.0079" class="st16"/>
				<text x="4" y="448.39" class="st17" v:langID="1031"><v:paragraph/><v:tabList/>Application X-1</text>			</g>
		</g>
		<g id="group54-119" transform="translate(264.372,-122.255)" v:mID="54" v:groupContext="group">
			<v:userDefs>
				<v:ud v:nameU="UMLShapeType" v:val="VT0(26):26"/>
				<v:ud v:nameU="UMLObjectGUID" v:val="VT4()"/>
				<v:ud v:nameU="UMLError" v:val="VT0(0):26"/>
				<v:ud v:nameU="UMLPresOption1" v:val="VT0(3):26"/>
				<v:ud v:nameU="UMLVersion" v:val="VT0(2):26"/>
				<v:ud v:nameU="visDescription" v:val="VT4(Represents a run-time computational or physical resource.)"/>
				<v:ud v:nameU="visVersion" v:val="VT0(12):26"/>
			</v:userDefs>
			<title>Node.54</title>
			<g id="shape55-120" v:mID="55" v:groupContext="shape" transform="translate(116.22,0)">
				<title>Sheet.55</title>
				<path d="M0 454.2 L9 445.2 L9 428.19 L0 437.19 L0 454.2 Z" class="st16"/>
			</g>
			<g id="shape56-122" v:mID="56" v:groupContext="shape" transform="translate(0,-17.0079)">
				<title>Sheet.56</title>
				<path d="M0 454.2 L116.22 454.2 L125.22 445.2 L9 445.2 L0 454.2 Z" class="st16"/>
			</g>
			<g id="shape57-124" v:mID="57" v:groupContext="shape">
				<title>Name</title>
				<desc>Application X-...</desc>
				<v:textBlock v:margins="rect(4,4,4,4)" v:tabSpace="42.5197" v:verticalAlign="0"/>
				<v:textRect cx="58.1102" cy="445.694" width="116.23" height="17.0079"/>
				<rect x="0" y="437.191" width="116.22" height="17.0079" class="st16"/>
				<text x="4" y="448.39" class="st17" v:langID="1031"><v:paragraph/><v:tabList/>Application X-...</text>			</g>
		</g>
		<g id="group58-127" transform="translate(264.372,-88.2397)" v:mID="58" v:groupContext="group">
			<v:userDefs>
				<v:ud v:nameU="UMLShapeType" v:val="VT0(26):26"/>
				<v:ud v:nameU="UMLObjectGUID" v:val="VT4()"/>
				<v:ud v:nameU="UMLError" v:val="VT0(0):26"/>
				<v:ud v:nameU="UMLPresOption1" v:val="VT0(3):26"/>
				<v:ud v:nameU="UMLVersion" v:val="VT0(2):26"/>
				<v:ud v:nameU="visDescription" v:val="VT4(Represents a run-time computational or physical resource.)"/>
				<v:ud v:nameU="visVersion" v:val="VT0(12):26"/>
			</v:userDefs>
			<title>Node.58</title>
			<g id="shape59-128" v:mID="59" v:groupContext="shape" transform="translate(116.22,0)">
				<title>Sheet.59</title>
				<path d="M0 454.2 L9 445.2 L9 428.19 L0 437.19 L0 454.2 Z" class="st16"/>
			</g>
			<g id="shape60-130" v:mID="60" v:groupContext="shape" transform="translate(0,-17.0079)">
				<title>Sheet.60</title>
				<path d="M0 454.2 L116.22 454.2 L125.22 445.2 L9 445.2 L0 454.2 Z" class="st16"/>
			</g>
			<g id="shape61-132" v:mID="61" v:groupContext="shape">
				<title>Name</title>
				<desc>Application X-...</desc>
				<v:textBlock v:margins="rect(4,4,4,4)" v:tabSpace="42.5197" v:verticalAlign="0"/>
				<v:textRect cx="58.1102" cy="445.694" width="116.23" height="17.0079"/>
				<rect x="0" y="437.191" width="116.22" height="17.0079" class="st16"/>
				<text x="4" y="448.39" class="st17" v:langID="1031"><v:paragraph/><v:tabList/>Application X-...</text>			</g>
		</g>
		<g id="shape37-135" v:mID="37" v:groupContext="shape" transform="translate(412.494,-14.8932)">
			<title>Sheet.37</title>
			<desc>Cross-Cutting Systems</desc>
			<v:textBlock v:margins="rect(4,4,4,4)" v:tabSpace="42.5197" v:verticalAlign="0"/>
			<v:textRect cx="70.8661" cy="359.238" width="141.74" height="189.921"/>
			<path d="M0 454.2 L141.73 454.2 L141.73 264.28 L0 264.28 L0 454.2 Z" class="st15"/>
			<text x="4" y="276.38" class="st2" v:langID="1031"><v:paragraph/><v:tabList/>Cross-Cutting Systems</text>		</g>
		<g id="group38-138" transform="translate(420.278,-156.271)" v:mID="38" v:groupContext="group">
			<v:userDefs>
				<v:ud v:nameU="UMLShapeType" v:val="VT0(26):26"/>
				<v:ud v:nameU="UMLObjectGUID" v:val="VT4()"/>
				<v:ud v:nameU="UMLError" v:val="VT0(0):26"/>
				<v:ud v:nameU="UMLPresOption1" v:val="VT0(3):26"/>
				<v:ud v:nameU="UMLVersion" v:val="VT0(2):26"/>
				<v:ud v:nameU="visDescription" v:val="VT4(Represents a run-time computational or physical resource.)"/>
				<v:ud v:nameU="visVersion" v:val="VT0(12):26"/>
			</v:userDefs>
			<title>Node.38</title>
			<g id="shape39-139" v:mID="39" v:groupContext="shape" transform="translate(116.22,0)">
				<title>Sheet.39</title>
				<path d="M0 454.2 L9 445.2 L9 428.19 L0 437.19 L0 454.2 Z" class="st18"/>
			</g>
			<g id="shape40-141" v:mID="40" v:groupContext="shape" transform="translate(0,-17.0079)">
				<title>Sheet.40</title>
				<path d="M0 454.2 L116.22 454.2 L125.22 445.2 L9 445.2 L0 454.2 Z" class="st18"/>
			</g>
			<g id="shape41-143" v:mID="41" v:groupContext="shape">
				<title>Name</title>
				<desc>Access-Manager</desc>
				<v:textBlock v:margins="rect(4,4,4,4)" v:tabSpace="42.5197" v:verticalAlign="0"/>
				<v:textRect cx="58.1102" cy="445.694" width="116.23" height="17.0079"/>
				<rect x="0" y="437.191" width="116.22" height="17.0079" class="st18"/>
				<text x="4" y="448.39" class="st17" v:langID="1031"><v:paragraph/><v:tabList/>Access-Manager</text>			</g>
		</g>
		<g id="group42-146" transform="translate(420.278,-122.255)" v:mID="42" v:groupContext="group">
			<v:userDefs>
				<v:ud v:nameU="UMLShapeType" v:val="VT0(26):26"/>
				<v:ud v:nameU="UMLObjectGUID" v:val="VT4()"/>
				<v:ud v:nameU="UMLError" v:val="VT0(0):26"/>
				<v:ud v:nameU="UMLPresOption1" v:val="VT0(3):26"/>
				<v:ud v:nameU="UMLVersion" v:val="VT0(2):26"/>
				<v:ud v:nameU="visDescription" v:val="VT4(Represents a run-time computational or physical resource.)"/>
				<v:ud v:nameU="visVersion" v:val="VT0(12):26"/>
			</v:userDefs>
			<title>Node.42</title>
			<g id="shape43-147" v:mID="43" v:groupContext="shape" transform="translate(116.22,0)">
				<title>Sheet.43</title>
				<path d="M0 454.2 L9 445.2 L9 428.19 L0 437.19 L0 454.2 Z" class="st18"/>
			</g>
			<g id="shape44-149" v:mID="44" v:groupContext="shape" transform="translate(0,-17.0079)">
				<title>Sheet.44</title>
				<path d="M0 454.2 L116.22 454.2 L125.22 445.2 L9 445.2 L0 454.2 Z" class="st18"/>
			</g>
			<g id="shape45-151" v:mID="45" v:groupContext="shape">
				<title>Name</title>
				<desc>DMS</desc>
				<v:textBlock v:margins="rect(4,4,4,4)" v:tabSpace="42.5197"/>
				<v:textRect cx="58.1102" cy="445.694" width="116.23" height="17.0079"/>
				<rect x="0" y="437.191" width="116.22" height="17.0079" class="st18"/>
				<text x="4" y="448.09" class="st17" v:langID="1031"><v:paragraph/><v:tabList/>DMS</text>			</g>
		</g>
		<g id="group46-154" transform="translate(420.278,-88.2397)" v:mID="46" v:groupContext="group">
			<v:userDefs>
				<v:ud v:nameU="UMLShapeType" v:val="VT0(26):26"/>
				<v:ud v:nameU="UMLObjectGUID" v:val="VT4()"/>
				<v:ud v:nameU="UMLError" v:val="VT0(0):26"/>
				<v:ud v:nameU="UMLPresOption1" v:val="VT0(3):26"/>
				<v:ud v:nameU="UMLVersion" v:val="VT0(2):26"/>
				<v:ud v:nameU="visDescription" v:val="VT4(Represents a run-time computational or physical resource.)"/>
				<v:ud v:nameU="visVersion" v:val="VT0(12):26"/>
			</v:userDefs>
			<title>Node.46</title>
			<g id="shape47-155" v:mID="47" v:groupContext="shape" transform="translate(116.22,0)">
				<title>Sheet.47</title>
				<path d="M0 454.2 L9 445.2 L9 428.19 L0 437.19 L0 454.2 Z" class="st18"/>
			</g>
			<g id="shape48-157" v:mID="48" v:groupContext="shape" transform="translate(0,-17.0079)">
				<title>Sheet.48</title>
				<path d="M0 454.2 L116.22 454.2 L125.22 445.2 L9 445.2 L0 454.2 Z" class="st18"/>
			</g>
			<g id="shape62-159" v:mID="62" v:groupContext="shape">
				<title>Name</title>
				<desc>OMS</desc>
				<v:textBlock v:margins="rect(4,4,4,4)" v:tabSpace="42.5197"/>
				<v:textRect cx="58.1102" cy="445.694" width="116.23" height="17.0079"/>
				<rect x="0" y="437.191" width="116.22" height="17.0079" class="st18"/>
				<text x="4" y="448.09" class="st17" v:langID="1031"><v:paragraph/><v:tabList/>OMS</text>			</g>
		</g>
		<g id="group63-162" transform="translate(138.514,-227.137)" v:mID="63" v:groupContext="group">
			<title>Sheet.63</title>
			<g id="shape64-163" v:mID="64" v:groupContext="shape" transform="translate(458.077,410.663) rotate(89.8718)">
				<title>Sheet.64</title>
				<path d="M0 454.2 L39.69 454.2" class="st13"/>
			</g>
			<g id="shape65-166" v:mID="65" v:groupContext="shape" transform="translate(7.93701,900.46) rotate(180)">
				<title>Triangle</title>
				<v:userDefs>
					<v:ud v:nameU="visVersion" v:val="VT0(12):26"/>
				</v:userDefs>
				<path d="M8.55 454.2 L3.97 446.26 L-0.61 454.2 L8.55 454.2 Z" class="st14"/>
			</g>
		</g>
		<g id="group66-168" transform="translate(365.285,-227.137)" v:mID="66" v:groupContext="group">
			<title>Sheet.66</title>
			<g id="shape67-169" v:mID="67" v:groupContext="shape" transform="translate(458.077,410.663) rotate(89.8718)">
				<title>Sheet.67</title>
				<path d="M0 454.2 L39.69 454.2" class="st13"/>
			</g>
			<g id="shape73-172" v:mID="73" v:groupContext="shape" transform="translate(7.93701,900.46) rotate(180)">
				<title>Triangle</title>
				<v:userDefs>
					<v:ud v:nameU="visVersion" v:val="VT0(12):26"/>
				</v:userDefs>
				<path d="M8.55 454.2 L3.97 446.26 L-0.61 454.2 L8.55 454.2 Z" class="st14"/>
			</g>
		</g>
		<g id="group74-174" transform="translate(460.787,-227.137)" v:mID="74" v:groupContext="group">
			<title>Sheet.74</title>
			<g id="shape75-175" v:mID="75" v:groupContext="shape" transform="translate(-450.14,455.214) rotate(-90.1282)">
				<title>Sheet.75</title>
				<path d="M0 454.2 L39.54 454.2" class="st13"/>
			</g>
			<g id="shape76-178" v:mID="76" v:groupContext="shape" transform="translate(1.39888E-014,-34.4409)">
				<title>Triangle</title>
				<v:userDefs>
					<v:ud v:nameU="visVersion" v:val="VT0(12):26"/>
				</v:userDefs>
				<path d="M8.55 454.2 L3.97 446.26 L-0.61 454.2 L8.55 454.2 Z" class="st14"/>
			</g>
		</g>
		<g id="group77-180" transform="translate(420.278,-54.5783)" v:mID="77" v:groupContext="group">
			<v:userDefs>
				<v:ud v:nameU="UMLShapeType" v:val="VT0(26):26"/>
				<v:ud v:nameU="UMLObjectGUID" v:val="VT4()"/>
				<v:ud v:nameU="UMLError" v:val="VT0(0):26"/>
				<v:ud v:nameU="UMLPresOption1" v:val="VT0(3):26"/>
				<v:ud v:nameU="UMLVersion" v:val="VT0(2):26"/>
				<v:ud v:nameU="visDescription" v:val="VT4(Represents a run-time computational or physical resource.)"/>
				<v:ud v:nameU="visVersion" v:val="VT0(12):26"/>
			</v:userDefs>
			<title>Node.77</title>
			<g id="shape78-181" v:mID="78" v:groupContext="shape" transform="translate(116.22,0)">
				<title>Sheet.78</title>
				<path d="M0 454.2 L9 445.2 L9 428.19 L0 437.19 L0 454.2 Z" class="st18"/>
			</g>
			<g id="shape79-183" v:mID="79" v:groupContext="shape" transform="translate(0,-17.0079)">
				<title>Sheet.79</title>
				<path d="M0 454.2 L116.22 454.2 L125.22 445.2 L9 445.2 L0 454.2 Z" class="st18"/>
			</g>
			<g id="shape80-185" v:mID="80" v:groupContext="shape">
				<title>Name</title>
				<desc>Keylist-Server</desc>
				<v:textBlock v:margins="rect(4,4,4,4)" v:tabSpace="42.5197"/>
				<v:textRect cx="58.1102" cy="445.694" width="116.23" height="17.0079"/>
				<rect x="0" y="437.191" width="116.22" height="17.0079" class="st18"/>
				<text x="4" y="448.09" class="st17" v:langID="1031"><v:paragraph/><v:tabList/>Keylist-Server</text>			</g>
		</g>
		<g id="group81-188" transform="translate(23.4272,-54.5783)" v:mID="81" v:groupContext="group">
			<v:userDefs>
				<v:ud v:nameU="UMLShapeType" v:val="VT0(26):26"/>
				<v:ud v:nameU="UMLObjectGUID" v:val="VT4()"/>
				<v:ud v:nameU="UMLError" v:val="VT0(0):26"/>
				<v:ud v:nameU="UMLPresOption1" v:val="VT0(3):26"/>
				<v:ud v:nameU="UMLVersion" v:val="VT0(2):26"/>
				<v:ud v:nameU="visDescription" v:val="VT4(Represents a run-time computational or physical resource.)"/>
				<v:ud v:nameU="visVersion" v:val="VT0(12):26"/>
			</v:userDefs>
			<title>Node.81</title>
			<g id="shape82-189" v:mID="82" v:groupContext="shape" transform="translate(116.22,0)">
				<title>Sheet.82</title>
				<path d="M0 454.2 L9 445.2 L9 428.19 L0 437.19 L0 454.2 Z" class="st16"/>
			</g>
			<g id="shape83-191" v:mID="83" v:groupContext="shape" transform="translate(0,-17.0079)">
				<title>Sheet.83</title>
				<path d="M0 454.2 L116.22 454.2 L125.22 445.2 L9 445.2 L0 454.2 Z" class="st16"/>
			</g>
			<g id="shape84-193" v:mID="84" v:groupContext="shape">
				<title>Name</title>
				<desc>Application A-...</desc>
				<v:textBlock v:margins="rect(4,4,4,4)" v:tabSpace="42.5197" v:verticalAlign="0"/>
				<v:textRect cx="58.1102" cy="445.694" width="116.23" height="17.0079"/>
				<rect x="0" y="437.191" width="116.22" height="17.0079" class="st16"/>
				<text x="4" y="448.39" class="st17" v:langID="1031"><v:paragraph/><v:tabList/>Application A-...</text>			</g>
		</g>
		<g id="group85-196" transform="translate(264.372,-54.5783)" v:mID="85" v:groupContext="group">
			<v:userDefs>
				<v:ud v:nameU="UMLShapeType" v:val="VT0(26):26"/>
				<v:ud v:nameU="UMLObjectGUID" v:val="VT4()"/>
				<v:ud v:nameU="UMLError" v:val="VT0(0):26"/>
				<v:ud v:nameU="UMLPresOption1" v:val="VT0(3):26"/>
				<v:ud v:nameU="UMLVersion" v:val="VT0(2):26"/>
				<v:ud v:nameU="visDescription" v:val="VT4(Represents a run-time computational or physical resource.)"/>
				<v:ud v:nameU="visVersion" v:val="VT0(12):26"/>
			</v:userDefs>
			<title>Node.85</title>
			<g id="shape90-197" v:mID="90" v:groupContext="shape" transform="translate(116.22,0)">
				<title>Sheet.90</title>
				<path d="M0 454.2 L9 445.2 L9 428.19 L0 437.19 L0 454.2 Z" class="st16"/>
			</g>
			<g id="shape91-199" v:mID="91" v:groupContext="shape" transform="translate(0,-17.0079)">
				<title>Sheet.91</title>
				<path d="M0 454.2 L116.22 454.2 L125.22 445.2 L9 445.2 L0 454.2 Z" class="st16"/>
			</g>
			<g id="shape92-201" v:mID="92" v:groupContext="shape">
				<title>Name</title>
				<desc>Application X-...</desc>
				<v:textBlock v:margins="rect(4,4,4,4)" v:tabSpace="42.5197" v:verticalAlign="0"/>
				<v:textRect cx="58.1102" cy="445.694" width="116.23" height="17.0079"/>
				<rect x="0" y="437.191" width="116.22" height="17.0079" class="st16"/>
				<text x="4" y="448.39" class="st17" v:langID="1031"><v:paragraph/><v:tabList/>Application X-...</text>			</g>
		</g>
		<g id="group93-204" transform="translate(420.278,-20.5625)" v:mID="93" v:groupContext="group">
			<v:userDefs>
				<v:ud v:nameU="UMLShapeType" v:val="VT0(26):26"/>
				<v:ud v:nameU="UMLObjectGUID" v:val="VT4()"/>
				<v:ud v:nameU="UMLError" v:val="VT0(0):26"/>
				<v:ud v:nameU="UMLPresOption1" v:val="VT0(3):26"/>
				<v:ud v:nameU="UMLVersion" v:val="VT0(2):26"/>
				<v:ud v:nameU="visDescription" v:val="VT4(Represents a run-time computational or physical resource.)"/>
				<v:ud v:nameU="visVersion" v:val="VT0(12):26"/>
			</v:userDefs>
			<title>Node.93</title>
			<g id="shape94-205" v:mID="94" v:groupContext="shape" transform="translate(116.22,0)">
				<title>Sheet.94</title>
				<path d="M0 454.2 L9 445.2 L9 428.19 L0 437.19 L0 454.2 Z" class="st18"/>
			</g>
			<g id="shape95-207" v:mID="95" v:groupContext="shape" transform="translate(0,-17.0079)">
				<title>Sheet.95</title>
				<path d="M0 454.2 L116.22 454.2 L125.22 445.2 L9 445.2 L0 454.2 Z" class="st18"/>
			</g>
			<g id="shape96-209" v:mID="96" v:groupContext="shape">
				<title>Name</title>
				<desc>...</desc>
				<v:textBlock v:margins="rect(4,4,4,4)" v:tabSpace="42.5197"/>
				<v:textRect cx="58.1102" cy="445.694" width="116.23" height="17.0079"/>
				<rect x="0" y="437.191" width="116.22" height="17.0079" class="st18"/>
				<text x="4" y="448.09" class="st17" v:langID="1031"><v:paragraph/><v:tabList/>...</text>			</g>
		</g>
		<g id="group97-212" transform="translate(264.372,-20.5625)" v:mID="97" v:groupContext="group">
			<v:userDefs>
				<v:ud v:nameU="UMLShapeType" v:val="VT0(26):26"/>
				<v:ud v:nameU="UMLObjectGUID" v:val="VT4()"/>
				<v:ud v:nameU="UMLError" v:val="VT0(0):26"/>
				<v:ud v:nameU="UMLPresOption1" v:val="VT0(3):26"/>
				<v:ud v:nameU="UMLVersion" v:val="VT0(2):26"/>
				<v:ud v:nameU="visDescription" v:val="VT4(Represents a run-time computational or physical resource.)"/>
				<v:ud v:nameU="visVersion" v:val="VT0(12):26"/>
			</v:userDefs>
			<title>Node.97</title>
			<g id="shape98-213" v:mID="98" v:groupContext="shape" transform="translate(116.22,0)">
				<title>Sheet.98</title>
				<path d="M0 454.2 L9 445.2 L9 428.19 L0 437.19 L0 454.2 Z" class="st16"/>
			</g>
			<g id="shape99-215" v:mID="99" v:groupContext="shape" transform="translate(0,-17.0079)">
				<title>Sheet.99</title>
				<path d="M0 454.2 L116.22 454.2 L125.22 445.2 L9 445.2 L0 454.2 Z" class="st16"/>
			</g>
			<g id="shape100-217" v:mID="100" v:groupContext="shape">
				<title>Name</title>
				<desc>Application X-N</desc>
				<v:textBlock v:margins="rect(4,4,4,4)" v:tabSpace="42.5197" v:verticalAlign="0"/>
				<v:textRect cx="58.1102" cy="445.694" width="116.23" height="17.0079"/>
				<rect x="0" y="437.191" width="116.22" height="17.0079" class="st16"/>
				<text x="4" y="448.39" class="st17" v:langID="1031"><v:paragraph/><v:tabList/>Application X-N</text>			</g>
		</g>
		<g id="group101-220" transform="translate(23.4272,-20.5625)" v:mID="101" v:groupContext="group">
			<v:userDefs>
				<v:ud v:nameU="UMLShapeType" v:val="VT0(26):26"/>
				<v:ud v:nameU="UMLObjectGUID" v:val="VT4()"/>
				<v:ud v:nameU="UMLError" v:val="VT0(0):26"/>
				<v:ud v:nameU="UMLPresOption1" v:val="VT0(3):26"/>
				<v:ud v:nameU="UMLVersion" v:val="VT0(2):26"/>
				<v:ud v:nameU="visDescription" v:val="VT4(Represents a run-time computational or physical resource.)"/>
				<v:ud v:nameU="visVersion" v:val="VT0(12):26"/>
			</v:userDefs>
			<title>Node.101</title>
			<g id="shape102-221" v:mID="102" v:groupContext="shape" transform="translate(116.22,0)">
				<title>Sheet.102</title>
				<path d="M0 454.2 L9 445.2 L9 428.19 L0 437.19 L0 454.2 Z" class="st16"/>
			</g>
			<g id="shape103-223" v:mID="103" v:groupContext="shape" transform="translate(0,-17.0079)">
				<title>Sheet.103</title>
				<path d="M0 454.2 L116.22 454.2 L125.22 445.2 L9 445.2 L0 454.2 Z" class="st16"/>
			</g>
			<g id="shape104-225" v:mID="104" v:groupContext="shape">
				<title>Name</title>
				<desc>Application A-N</desc>
				<v:textBlock v:margins="rect(4,4,4,4)" v:tabSpace="42.5197" v:verticalAlign="0"/>
				<v:textRect cx="58.1102" cy="445.694" width="116.23" height="17.0079"/>
				<rect x="0" y="437.191" width="116.22" height="17.0079" class="st16"/>
				<text x="4" y="448.39" class="st17" v:langID="1031"><v:paragraph/><v:tabList/>Application A-N</text>			</g>
		</g>
	</g>
</svg>
