<?xml version="1.0" encoding="UTF-8" standalone="no"?>
<!-- Created with Inkscape (http://www.inkscape.org/) -->

<svg
   xmlns:dc="http://purl.org/dc/elements/1.1/"
   xmlns:cc="http://creativecommons.org/ns#"
   xmlns:rdf="http://www.w3.org/1999/02/22-rdf-syntax-ns#"
   xmlns:svg="http://www.w3.org/2000/svg"
   xmlns="http://www.w3.org/2000/svg"
   xmlns:sodipodi="http://sodipodi.sourceforge.net/DTD/sodipodi-0.dtd"
   xmlns:inkscape="http://www.inkscape.org/namespaces/inkscape"
   width="208.02246mm"
   height="84.243332mm"
   viewBox="0 0 208.02246 84.243332"
   version="1.1"
   id="svg8"
   inkscape:version="0.92.1 r15371"
   sodipodi:docname="components-layer-service-layer-boundaries.svg">
  <defs
     id="defs2">
    <clipPath
       id="clipPath487"
       clipPathUnits="userSpaceOnUse">
      <path
         style="clip-rule:evenodd"
         inkscape:connector-curvature="0"
         id="path485"
         d="M 0,1.2207e-4 H 780 V 540.00012 H 0 Z" />
    </clipPath>
    <clipPath
       id="clipPath499"
       clipPathUnits="userSpaceOnUse">
      <path
         style="clip-rule:evenodd"
         inkscape:connector-curvature="0"
         id="path497"
         d="M 1.1623e-5,0 H 780.00001 V 540 H 1.1623e-5 Z" />
    </clipPath>
    <clipPath
       id="clipPath511"
       clipPathUnits="userSpaceOnUse">
      <path
         style="clip-rule:evenodd"
         inkscape:connector-curvature="0"
         id="path509"
         d="M 1.1623e-5,0 H 780.00001 V 540 H 1.1623e-5 Z" />
    </clipPath>
    <clipPath
       id="clipPath525"
       clipPathUnits="userSpaceOnUse">
      <path
         style="clip-rule:evenodd"
         inkscape:connector-curvature="0"
         id="path523"
         d="M 1.1623e-5,0 H 780.00001 V 540 H 1.1623e-5 Z" />
    </clipPath>
    <clipPath
       id="clipPath537"
       clipPathUnits="userSpaceOnUse">
      <path
         style="clip-rule:evenodd"
         inkscape:connector-curvature="0"
         id="path535"
         d="M -7.605e-6,540 H 780 V 0 L -2.729e-5,6.1035e-5" />
    </clipPath>
    <clipPath
       id="clipPath549"
       clipPathUnits="userSpaceOnUse">
      <path
         style="clip-rule:evenodd"
         inkscape:connector-curvature="0"
         id="path547"
         d="M 1.1623e-5,0 H 780.00001 V 540 H 1.1623e-5 Z" />
    </clipPath>
    <clipPath
       id="clipPath561"
       clipPathUnits="userSpaceOnUse">
      <path
         style="clip-rule:evenodd"
         inkscape:connector-curvature="0"
         id="path559"
         d="M -3.0406e-5,540 H 780 V 6.1035e-5 H -3.0406e-5" />
    </clipPath>
    <clipPath
       id="clipPath571"
       clipPathUnits="userSpaceOnUse">
      <path
         style="clip-rule:evenodd"
         inkscape:connector-curvature="0"
         id="path569"
         d="M 1.1623e-5,0 H 780.00001 V 540 H 1.1623e-5 Z" />
    </clipPath>
    <clipPath
       id="clipPath583"
       clipPathUnits="userSpaceOnUse">
      <path
         style="clip-rule:evenodd"
         inkscape:connector-curvature="0"
         id="path581"
         d="M 1.1623e-5,0 H 780.00001 V 540 H 1.1623e-5 Z" />
    </clipPath>
    <clipPath
       id="clipPath599"
       clipPathUnits="userSpaceOnUse">
      <path
         style="clip-rule:evenodd"
         inkscape:connector-curvature="0"
         id="path597"
         d="M 1.1623e-5,0 H 780.00001 V 540 H 1.1623e-5 Z" />
    </clipPath>
    <clipPath
       id="clipPath611"
       clipPathUnits="userSpaceOnUse">
      <path
         style="clip-rule:evenodd"
         inkscape:connector-curvature="0"
         id="path609"
         d="M 1.1623e-5,0 H 780.00001 V 540 H 1.1623e-5 Z" />
    </clipPath>
  </defs>
  <sodipodi:namedview
     id="base"
     pagecolor="#ffffff"
     bordercolor="#666666"
     borderopacity="1.0"
     inkscape:pageopacity="0.0"
     inkscape:pageshadow="2"
     inkscape:zoom="0.35"
     inkscape:cx="400.55999"
     inkscape:cy="98.240113"
     inkscape:document-units="mm"
     inkscape:current-layer="layer1"
     showgrid="false"
     inkscape:window-width="1920"
     inkscape:window-height="1015"
     inkscape:window-x="-9"
     inkscape:window-y="-9"
     inkscape:window-maximized="1"
     fit-margin-top="0"
     fit-margin-left="0"
     fit-margin-right="0"
     fit-margin-bottom="0" />
  <metadata
     id="metadata5">
    <rdf:RDF>
      <cc:Work
         rdf:about="">
        <dc:format>image/svg+xml</dc:format>
        <dc:type
           rdf:resource="http://purl.org/dc/dcmitype/StillImage" />
        <dc:title></dc:title>
      </cc:Work>
    </rdf:RDF>
  </metadata>
  <g
     inkscape:label="Ebene 1"
     inkscape:groupmode="layer"
     id="layer1"
     transform="translate(0.14816436,-90.582697)">
    <path
       d="m 52.451001,153.09492 c 0,-2.39889 1.947333,-4.34622 4.346222,-4.34622 h 51.886557 c 2.39889,0 4.34622,1.94733 4.34622,4.34622 v 17.38489 c 0,2.39888 -1.94733,4.34622 -4.34622,4.34622 H 56.797223 c -2.398889,0 -4.346222,-1.94734 -4.346222,-4.34622 z"
       style="fill:#5b9bd5;fill-opacity:1;fill-rule:evenodd;stroke:none;stroke-width:0.35277778"
       id="path491"
       inkscape:connector-curvature="0" />
    <g
       id="g493"
       transform="matrix(0.35277777,0,0,-0.35277777,-31.749997,244.08336)">
      <g
         id="g495"
         clip-path="url(#clipPath499)">
        <text
           transform="matrix(1,0,0,-1,299.26,237.5)"
           style="font-variant:normal;font-weight:normal;font-size:18.95999908px;font-family:Arial;-inkscape-font-specification:ArialMT;writing-mode:lr-tb;fill:#ffffff;fill-opacity:1;fill-rule:nonzero;stroke:none"
           id="text503">
          <tspan
             x="0 12.64632 28.440001 38.981758 45.333359 50.60424"
             y="0"
             sodipodi:role="line"
             id="tspan501">Smart</tspan>
        </text>
      </g>
    </g>
    <g
       id="g505"
       transform="matrix(0.35277777,0,0,-0.35277777,-31.749997,244.08336)">
      <g
         id="g507"
         clip-path="url(#clipPath511)">
        <text
           transform="matrix(1,0,0,-1,275.5,214.7)"
           style="font-variant:normal;font-weight:normal;font-size:18.98399925px;font-family:Arial;-inkscape-font-specification:ArialMT;writing-mode:lr-tb;fill:#ffffff;fill-opacity:1;fill-rule:nonzero;stroke:none"
           id="text515">
          <tspan
             x="0 13.706448 24.261553 40.075226 50.630329 61.185432 71.74054 82.295639 92.850746"
             y="0"
             sodipodi:role="line"
             id="tspan513">Component</tspan>
        </text>
      </g>
    </g>
    <path
       d="m 100.838,93.10153 c 0,-1.389944 1.12889,-2.518833 2.51883,-2.518833 h 55.499 c 1.38995,0 2.51884,1.128889 2.51884,2.518833 v 10.07533 c 0,1.38995 -1.12889,2.51884 -2.51884,2.51884 h -55.499 c -1.38994,0 -2.51883,-1.12889 -2.51883,-2.51884 z"
       style="fill:#e47e1a;fill-opacity:1;fill-rule:evenodd;stroke:none;stroke-width:0.35277778"
       id="path517"
       inkscape:connector-curvature="0" />
    <g
       id="g519"
       transform="matrix(0.35277777,0,0,-0.35277777,-31.749997,244.08336)">
      <g
         id="g521"
         clip-path="url(#clipPath525)">
        <text
           transform="matrix(1,0,0,-1,430.08,406.63)"
           style="font-variant:normal;font-weight:normal;font-size:18.98399925px;font-family:Arial;-inkscape-font-specification:ArialMT;writing-mode:lr-tb;fill:#ffffff;fill-opacity:1;fill-rule:nonzero;stroke:none"
           id="text529">
          <tspan
             x="0 12.605376 23.16048 29.482153 38.974152 43.188599 52.680599"
             y="0"
             sodipodi:role="line"
             id="tspan527">Service</tspan>
        </text>
      </g>
    </g>
    <g
       id="g531"
       transform="matrix(0.35277777,0,0,-0.35277777,-31.749997,244.08336)">
      <g
         id="g533"
         clip-path="url(#clipPath537)">
        <path
           d="m 323.76,270.11 v 61.05 c 0,0.44 0.35,0.78 0.78,0.78 h 137.1 l -0.78,-0.78 v 56.06 h 1.56 v -56.06 c 0,-0.43 -0.35,-0.78 -0.78,-0.78 h -137.1 l 0.78,0.78 v -61.05 z m 134.88,116.11 3,6 3,-6 z"
           style="fill:#5b9bd5;fill-opacity:1;fill-rule:nonzero;stroke:none"
           id="path539"
           inkscape:connector-curvature="0" />
      </g>
    </g>
    <path
       d="m 13.843002,93.10153 c 0,-1.389944 1.128889,-2.518833 2.518833,-2.518833 h 55.498999 c 1.389944,0 2.518833,1.128889 2.518833,2.518833 v 10.07533 c 0,1.38995 -1.128889,2.51884 -2.518833,2.51884 H 16.361835 c -1.389944,0 -2.518833,-1.12889 -2.518833,-2.51884 z"
       style="fill:#e47e1a;fill-opacity:1;fill-rule:evenodd;stroke:none;stroke-width:0.35277778"
       id="path541"
       inkscape:connector-curvature="0" />
    <g
       id="g543"
       transform="matrix(0.35277777,0,0,-0.35277777,-31.749997,244.08336)">
      <g
         id="g545"
         clip-path="url(#clipPath549)">
        <text
           transform="matrix(1,0,0,-1,192.29,406.63)"
           style="font-variant:normal;font-weight:normal;font-size:18.98399925px;font-family:Arial;-inkscape-font-specification:ArialMT;writing-mode:lr-tb;fill:#ffffff;fill-opacity:1;fill-rule:nonzero;stroke:none"
           id="text553">
          <tspan
             x="0 12.605376 17.882929 28.438032 34.759705"
             y="0"
             sodipodi:role="line"
             id="tspan551">Store</tspan>
        </text>
      </g>
    </g>
    <g
       id="g555"
       transform="matrix(0.35277777,0,0,-0.35277777,-31.749997,244.08336)">
      <g
         id="g557"
         clip-path="url(#clipPath561)">
        <path
           d="m 325.4,270.11 v 61.05 c 0,0.44 -0.35,0.78 -0.78,0.78 H 215.1 l 0.78,-0.78 v 56.06 h -1.56 v -56.06 c 0,-0.43 0.35,-0.78 0.78,-0.78 h 109.52 l -0.78,0.78 v -61.05 z m -107.3,116.11 -3,6 -3,-6 z"
           style="fill:#5b9bd5;fill-opacity:1;fill-rule:nonzero;stroke:none"
           id="path563"
           inkscape:connector-curvature="0" />
      </g>
    </g>
    <g
       id="g565"
       transform="matrix(0.35277777,0,0,-0.35277777,-31.749997,244.08336)">
      <g
         id="g567"
         clip-path="url(#clipPath571)">
        <text
           transform="matrix(1,0,0,-1,221.93,357.77)"
           style="font-variant:normal;font-weight:normal;font-size:18.95999908px;font-family:Arial;-inkscape-font-specification:ArialMT;writing-mode:lr-tb;fill:#000000;fill-opacity:1;fill-rule:nonzero;stroke:none"
           id="text575">
          <tspan
             x="0 9.4799995 20.021761 30.56352 40.043522 49.523521 55.894081 60.103199 70.644958 81.186722 87.557281"
             y="0"
             sodipodi:role="line"
             id="tspan573">subscribe()</tspan>
        </text>
      </g>
    </g>
    <g
       id="g577"
       transform="matrix(0.35277777,0,0,-0.35277777,-31.749997,244.08336)">
      <g
         id="g579"
         clip-path="url(#clipPath583)">
        <text
           transform="matrix(1,0,0,-1,390.1,354.5)"
           style="font-variant:normal;font-weight:normal;font-size:18.95999908px;font-family:Arial;-inkscape-font-specification:ArialMT;writing-mode:lr-tb;fill:#000000;fill-opacity:1;fill-rule:nonzero;stroke:none"
           id="text587">
          <tspan
             x="0 10.54176 20.021761 25.292641 29.50176 40.043522 50.585281 56.9748"
             y="0"
             sodipodi:role="line"
             id="tspan585">action()</tspan>
        </text>
      </g>
    </g>
    <g
       id="g589"
       transform="matrix(0.35277777,0,0,-0.35277777,-31.749997,244.08336)">
      <path
         d="M 89.58,312.9 H 679.25"
         style="fill:none;stroke:#909090;stroke-width:1.55999994;stroke-linecap:butt;stroke-linejoin:round;stroke-miterlimit:10;stroke-dasharray:6.24, 4.68;stroke-dashoffset:0;stroke-opacity:1"
         id="path591"
         inkscape:connector-curvature="0" />
    </g>
    <g
       id="g593"
       transform="matrix(0.35277777,0,0,-0.35277777,-31.749997,244.08336)">
      <g
         id="g595"
         clip-path="url(#clipPath599)">
        <text
           transform="matrix(1,0,0,-1,576.12,330.22)"
           style="font-variant:normal;font-weight:normal;font-size:14.03999996px;font-family:Arial;-inkscape-font-specification:ArialMT;writing-mode:lr-tb;fill:#000000;fill-opacity:1;fill-rule:nonzero;stroke:none"
           id="text603">
          <tspan
             x="0 9.3646803 17.170919 21.846239 28.69776 31.81464 38.876759 46.682999 53.745121 57.465721 65.271957 73.078201 79.901642 87.707878"
             y="0"
             sodipodi:role="line"
             id="tspan601">Services Layer</tspan>
        </text>
      </g>
    </g>
    <g
       id="g605"
       transform="matrix(0.35277777,0,0,-0.35277777,-31.749997,244.08336)">
      <g
         id="g607"
         clip-path="url(#clipPath611)">
        <text
           transform="matrix(1,0,0,-1,550.37,285.55)"
           style="font-variant:normal;font-weight:normal;font-size:14.03999996px;font-family:Arial;-inkscape-font-specification:ArialMT;writing-mode:lr-tb;fill:#000000;fill-opacity:1;fill-rule:nonzero;stroke:none"
           id="text615">
          <tspan
             x="0 10.13688 17.943119 29.568239 37.374481 45.180721 52.986961 60.793201 68.599442 72.502563 79.52256 83.088722 90.894958 98.701202 105.52464 113.33088"
             y="0"
             sodipodi:role="line"
             id="tspan613">Components Layer</tspan>
        </text>
      </g>
    </g>
  </g>
</svg>
