<?xml version="1.0" encoding="utf-8"?>
<!-- Generator: Adobe Illustrator 18.0.0, SVG Export Plug-In . SVG Version: 6.00 Build 0)  -->
<!DOCTYPE svg PUBLIC "-//W3C//DTD SVG 1.1//EN" "http://www.w3.org/Graphics/SVG/1.1/DTD/svg11.dtd">
<svg version="1.1" id="Ebene_1" xmlns="http://www.w3.org/2000/svg" xmlns:xlink="http://www.w3.org/1999/xlink" x="0px" y="0px"
	 viewBox="0 0 793.7 566.9" enable-background="new 0 0 793.7 566.9" xml:space="preserve">
<linearGradient id="SVGID_1_" gradientUnits="userSpaceOnUse" x1="351.8539" y1="198.3005" x2="254.3112" y2="323.1494">
	<stop  offset="0" style="stop-color:#008EC0"/>
	<stop  offset="1" style="stop-color:#005277"/>
</linearGradient>
<path fill="url(#SVGID_1_)" d="M319.1,173.1h-28.8c-31.4,0-56.8,25.4-56.8,56.8v63.2c0,19.4,13.7,35.7,31.9,39.7
	c2.7-19.3,19.3-34.2,39.3-34.2s36.6,14.9,39.3,34.2c18.3-4,31.9-20.2,31.9-39.7v-63.2C375.9,198.5,350.5,173.1,319.1,173.1z
	 M309.8,254.3v12.3c0,2.8-2.3,5.2-5.2,5.2s-5.2-2.3-5.2-5.2v-12.3c-10.7-2.4-18.7-11.9-18.7-23.3c0-13.2,10.7-23.8,23.8-23.8
	c13.2,0,23.8,10.7,23.8,23.8C328.5,242.4,320.5,251.9,309.8,254.3z"/>
<linearGradient id="SVGID_2_" gradientUnits="userSpaceOnUse" x1="189.1655" y1="195.9384" x2="95.2729" y2="316.1154">
	<stop  offset="0" style="stop-color:#008EC0"/>
	<stop  offset="1" style="stop-color:#005277"/>
</linearGradient>
<path fill="url(#SVGID_2_)" d="M158.7,173.1h-28.8c-31.4,0-56.8,25.4-56.8,56.8v46.9c0,31.4,25.4,56.8,56.8,56.8h28.8
	c31.4,0,56.8-25.4,56.8-56.8v-46.9C215.5,198.5,190.1,173.1,158.7,173.1z M174.2,271.1c-10.5,14.6-29.7,19.2-45.4,11.7l-7.4,10.3
	c-1,1.4-2.7,2.2-4.3,2.2c-1.1,0-2.1-0.3-3.1-1c-2.4-1.7-2.9-5-1.2-7.4l7.2-10c-13.6-12.3-16.2-33.1-5.3-48.4
	c10.4-14.5,29.4-19.1,45-11.9l6.5-9.1c1.7-2.4,5-2.9,7.4-1.2c2.4,1.7,2.9,5,1.2,7.4l-6.2,8.7C182.5,234.7,185.2,255.7,174.2,271.1z"
	/>
<linearGradient id="SVGID_3_" gradientUnits="userSpaceOnUse" x1="666.8912" y1="193.8323" x2="569.3447" y2="318.6861">
	<stop  offset="0" style="stop-color:#008EC0"/>
	<stop  offset="1" style="stop-color:#005277"/>
</linearGradient>
<path fill="url(#SVGID_3_)" d="M639.8,173.1H611c-31.4,0-56.8,25.4-56.8,56.8v63.2c0,22.4,18.2,40.6,40.6,40.6h6.7
	c0,0,4.9-12.4,17.5-11.5c53.9,3.9,77.7-22.5,77.7-69.7v-22.6C696.7,198.5,671.2,173.1,639.8,173.1z M669.7,256
	c-14.1,14.6-36.5,16-52.3,4.2L603.5,275c-1,1.1-2.4,1.7-3.9,1.7c-1.3,0-2.6-0.5-3.6-1.4c-2.1-2-2.2-5.3-0.2-7.5l14.1-15
	c-12-15.3-11.2-37.6,2.7-52c15.2-15.8,40.4-16.2,56.1-1C684.5,215.1,685,240.2,669.7,256z"/>
<linearGradient id="SVGID_4_" gradientUnits="userSpaceOnUse" x1="513.4155" y1="191.4673" x2="412.2153" y2="320.9977">
	<stop  offset="0" style="stop-color:#008EC0"/>
	<stop  offset="1" style="stop-color:#005277"/>
</linearGradient>
<path fill="url(#SVGID_4_)" d="M536.3,252.3v24.5c0,31.4-25.4,56.8-56.8,56.8h-45.1c-22.4,0-40.6-18.2-40.6-40.6v-19.5l17.5,12.6
	c-3.2,8.9-0.9,19.3,6.7,25.9c9.9,8.7,24.9,7.7,33.6-2.1c8.7-9.9,7.7-24.9-2.1-33.6c-9.4-8.3-23.6-7.8-32.4,0.9l-23.2-16.8v-30.6
	c0-31.4,25.4-56.8,56.8-56.8h45.1c22.4,0,40.6,18.2,40.6,40.6v25.6l-23.8-17.2c3.5-9.1,1.3-19.7-6.4-26.5
	c-9.9-8.7-24.9-7.7-33.6,2.2c-8.7,9.9-7.7,24.9,2.2,33.6c9.3,8.2,23.2,7.8,32-0.5L536.3,252.3z"/>
</svg>
